%TF.GenerationSoftware,KiCad,Pcbnew,(5.1.6)-1*%
%TF.CreationDate,2020-11-03T17:55:30-08:00*%
%TF.ProjectId,adc_i2c_iso,6164635f-6932-4635-9f69-736f2e6b6963,rev?*%
%TF.SameCoordinates,Original*%
%TF.FileFunction,Soldermask,Top*%
%TF.FilePolarity,Negative*%
%FSLAX46Y46*%
G04 Gerber Fmt 4.6, Leading zero omitted, Abs format (unit mm)*
G04 Created by KiCad (PCBNEW (5.1.6)-1) date 2020-11-03 17:55:30*
%MOMM*%
%LPD*%
G01*
G04 APERTURE LIST*
%ADD10R,1.450000X1.450000*%
%ADD11R,0.900000X1.000000*%
%ADD12C,3.300000*%
%ADD13R,1.160000X0.750000*%
%ADD14R,0.800000X1.400000*%
%ADD15R,1.000000X1.800000*%
%ADD16R,1.800000X1.800000*%
%ADD17O,1.800000X1.800000*%
%ADD18C,2.600000*%
%ADD19R,1.100000X1.350000*%
G04 APERTURE END LIST*
%TO.C,U3*%
G36*
G01*
X103502200Y-95908200D02*
X103152200Y-95908200D01*
G75*
G02*
X102977200Y-95733200I0J175000D01*
G01*
X102977200Y-94033200D01*
G75*
G02*
X103152200Y-93858200I175000J0D01*
G01*
X103502200Y-93858200D01*
G75*
G02*
X103677200Y-94033200I0J-175000D01*
G01*
X103677200Y-95733200D01*
G75*
G02*
X103502200Y-95908200I-175000J0D01*
G01*
G37*
G36*
G01*
X104772200Y-95908200D02*
X104422200Y-95908200D01*
G75*
G02*
X104247200Y-95733200I0J175000D01*
G01*
X104247200Y-94033200D01*
G75*
G02*
X104422200Y-93858200I175000J0D01*
G01*
X104772200Y-93858200D01*
G75*
G02*
X104947200Y-94033200I0J-175000D01*
G01*
X104947200Y-95733200D01*
G75*
G02*
X104772200Y-95908200I-175000J0D01*
G01*
G37*
G36*
G01*
X106042200Y-95908200D02*
X105692200Y-95908200D01*
G75*
G02*
X105517200Y-95733200I0J175000D01*
G01*
X105517200Y-94033200D01*
G75*
G02*
X105692200Y-93858200I175000J0D01*
G01*
X106042200Y-93858200D01*
G75*
G02*
X106217200Y-94033200I0J-175000D01*
G01*
X106217200Y-95733200D01*
G75*
G02*
X106042200Y-95908200I-175000J0D01*
G01*
G37*
G36*
G01*
X107312200Y-95908200D02*
X106962200Y-95908200D01*
G75*
G02*
X106787200Y-95733200I0J175000D01*
G01*
X106787200Y-94033200D01*
G75*
G02*
X106962200Y-93858200I175000J0D01*
G01*
X107312200Y-93858200D01*
G75*
G02*
X107487200Y-94033200I0J-175000D01*
G01*
X107487200Y-95733200D01*
G75*
G02*
X107312200Y-95908200I-175000J0D01*
G01*
G37*
G36*
G01*
X107312200Y-100858200D02*
X106962200Y-100858200D01*
G75*
G02*
X106787200Y-100683200I0J175000D01*
G01*
X106787200Y-98983200D01*
G75*
G02*
X106962200Y-98808200I175000J0D01*
G01*
X107312200Y-98808200D01*
G75*
G02*
X107487200Y-98983200I0J-175000D01*
G01*
X107487200Y-100683200D01*
G75*
G02*
X107312200Y-100858200I-175000J0D01*
G01*
G37*
G36*
G01*
X106042200Y-100858200D02*
X105692200Y-100858200D01*
G75*
G02*
X105517200Y-100683200I0J175000D01*
G01*
X105517200Y-98983200D01*
G75*
G02*
X105692200Y-98808200I175000J0D01*
G01*
X106042200Y-98808200D01*
G75*
G02*
X106217200Y-98983200I0J-175000D01*
G01*
X106217200Y-100683200D01*
G75*
G02*
X106042200Y-100858200I-175000J0D01*
G01*
G37*
G36*
G01*
X104772200Y-100858200D02*
X104422200Y-100858200D01*
G75*
G02*
X104247200Y-100683200I0J175000D01*
G01*
X104247200Y-98983200D01*
G75*
G02*
X104422200Y-98808200I175000J0D01*
G01*
X104772200Y-98808200D01*
G75*
G02*
X104947200Y-98983200I0J-175000D01*
G01*
X104947200Y-100683200D01*
G75*
G02*
X104772200Y-100858200I-175000J0D01*
G01*
G37*
G36*
G01*
X103502200Y-100858200D02*
X103152200Y-100858200D01*
G75*
G02*
X102977200Y-100683200I0J175000D01*
G01*
X102977200Y-98983200D01*
G75*
G02*
X103152200Y-98808200I175000J0D01*
G01*
X103502200Y-98808200D01*
G75*
G02*
X103677200Y-98983200I0J-175000D01*
G01*
X103677200Y-100683200D01*
G75*
G02*
X103502200Y-100858200I-175000J0D01*
G01*
G37*
%TD*%
D10*
%TO.C,J4*%
X113413540Y-91600020D03*
%TD*%
%TO.C,J3*%
X117558820Y-109613700D03*
%TD*%
%TO.C,J1*%
X125072140Y-91549220D03*
%TD*%
D11*
%TO.C,D1*%
X123901160Y-105988360D03*
X125801160Y-105988360D03*
X124851160Y-103988360D03*
%TD*%
D12*
%TO.C,REF\u002A\u002A*%
X132000000Y-112500000D03*
%TD*%
%TO.C,REF\u002A\u002A*%
X132000000Y-87500000D03*
%TD*%
D13*
%TO.C,U1*%
X117307180Y-100246140D03*
X117307180Y-101196140D03*
X117307180Y-102146140D03*
X119507180Y-102146140D03*
X119507180Y-100246140D03*
%TD*%
D14*
%TO.C,R7*%
X106080600Y-107518200D03*
X104180600Y-107518200D03*
%TD*%
%TO.C,R6*%
X106080600Y-105105200D03*
X104180600Y-105105200D03*
%TD*%
%TO.C,R5*%
X112303600Y-100457000D03*
X110403600Y-100457000D03*
%TD*%
%TO.C,R4*%
X112405200Y-94234000D03*
X110505200Y-94234000D03*
%TD*%
%TO.C,R3*%
X125808780Y-102196900D03*
X123908780Y-102196900D03*
%TD*%
D15*
%TO.C,R2*%
X123401160Y-95841820D03*
X126301160Y-95841820D03*
%TD*%
%TO.C,R1*%
X126301160Y-98585020D03*
X123401160Y-98585020D03*
%TD*%
D16*
%TO.C,J5*%
X100000000Y-93650000D03*
D17*
X100000000Y-96190000D03*
X100000000Y-98730000D03*
X100000000Y-101270000D03*
X100000000Y-103810000D03*
X100000000Y-106350000D03*
%TD*%
D18*
%TO.C,J2*%
X134000000Y-94579800D03*
X134000000Y-98079800D03*
X134000000Y-101579800D03*
X134000000Y-105079800D03*
%TD*%
D13*
%TO.C,U2*%
X112529800Y-98155800D03*
X112529800Y-97205800D03*
X112529800Y-96255800D03*
X110329800Y-96255800D03*
X110329800Y-98155800D03*
%TD*%
D19*
%TO.C,C5*%
X104206800Y-102514400D03*
X106206800Y-102514400D03*
%TD*%
%TO.C,C4*%
X104257600Y-92405200D03*
X106257600Y-92405200D03*
%TD*%
%TO.C,C3*%
X112353600Y-102870000D03*
X110353600Y-102870000D03*
%TD*%
%TO.C,C2*%
X117407180Y-98097340D03*
X119407180Y-98097340D03*
%TD*%
%TO.C,C1*%
X117610380Y-104543860D03*
X119610380Y-104543860D03*
%TD*%
M02*
