%TF.GenerationSoftware,KiCad,Pcbnew,(5.1.6)-1*%
%TF.CreationDate,2020-11-03T17:55:30-08:00*%
%TF.ProjectId,adc_i2c_iso,6164635f-6932-4635-9f69-736f2e6b6963,rev?*%
%TF.SameCoordinates,Original*%
%TF.FileFunction,Copper,L2,Bot*%
%TF.FilePolarity,Positive*%
%FSLAX46Y46*%
G04 Gerber Fmt 4.6, Leading zero omitted, Abs format (unit mm)*
G04 Created by KiCad (PCBNEW (5.1.6)-1) date 2020-11-03 17:55:30*
%MOMM*%
%LPD*%
G01*
G04 APERTURE LIST*
%TA.AperFunction,ComponentPad*%
%ADD10R,1.350000X1.350000*%
%TD*%
%TA.AperFunction,ComponentPad*%
%ADD11R,1.700000X1.700000*%
%TD*%
%TA.AperFunction,ComponentPad*%
%ADD12O,1.700000X1.700000*%
%TD*%
%TA.AperFunction,ComponentPad*%
%ADD13C,2.500000*%
%TD*%
%TA.AperFunction,ViaPad*%
%ADD14C,0.800000*%
%TD*%
%TA.AperFunction,Conductor*%
%ADD15C,0.250000*%
%TD*%
%TA.AperFunction,Conductor*%
%ADD16C,0.254000*%
%TD*%
G04 APERTURE END LIST*
D10*
%TO.P,J4,1*%
%TO.N,Net-(C2-Pad1)*%
X113413540Y-91600020D03*
%TD*%
%TO.P,J3,1*%
%TO.N,Net-(C1-Pad1)*%
X117558820Y-109613700D03*
%TD*%
%TO.P,J1,1*%
%TO.N,Net-(J1-Pad1)*%
X125072140Y-91549220D03*
%TD*%
D11*
%TO.P,J5,1*%
%TO.N,Net-(J5-Pad1)*%
X100000000Y-93650000D03*
D12*
%TO.P,J5,2*%
%TO.N,+3V3*%
X100000000Y-96190000D03*
%TO.P,J5,3*%
%TO.N,Net-(J5-Pad3)*%
X100000000Y-98730000D03*
%TO.P,J5,4*%
%TO.N,Net-(J5-Pad4)*%
X100000000Y-101270000D03*
%TO.P,J5,5*%
%TO.N,Net-(J5-Pad5)*%
X100000000Y-103810000D03*
%TO.P,J5,6*%
%TO.N,GND*%
X100000000Y-106350000D03*
%TD*%
D13*
%TO.P,J2,4*%
%TO.N,GNDA*%
X134000000Y-94579800D03*
%TO.P,J2,3*%
%TO.N,PVIN*%
X134000000Y-98079800D03*
%TO.P,J2,2*%
%TO.N,GNDA*%
X134000000Y-101579800D03*
%TO.P,J2,1*%
%TO.N,VCC_ISO*%
X134000000Y-105079800D03*
%TD*%
D14*
%TO.N,GNDA*%
X119395240Y-96527620D03*
X107696000Y-92379800D03*
X110286800Y-104571800D03*
X122504200Y-106034840D03*
X114117120Y-96860358D03*
X116050060Y-101196140D03*
X127906780Y-94178120D03*
X119610374Y-105860368D03*
%TO.N,+3V3*%
X102539800Y-101523800D03*
%TO.N,GND*%
X107640120Y-101579680D03*
%TO.N,VCC_ISO*%
X104317800Y-90754200D03*
X125730000Y-107858560D03*
X115798600Y-98925380D03*
X116100000Y-96800000D03*
%TD*%
D15*
%TO.N,+3V3*%
X100000000Y-96190000D02*
X102539800Y-98729800D01*
X102539800Y-98729800D02*
X102539800Y-101523800D01*
X102539800Y-101523800D02*
X102539800Y-101523800D01*
%TO.N,VCC_ISO*%
X115313460Y-96022160D02*
X115313460Y-89916000D01*
X116095780Y-96804480D02*
X115313460Y-96022160D01*
X115013740Y-99710240D02*
X115798600Y-98925380D01*
X125730000Y-107858560D02*
X115552220Y-107858560D01*
X115013740Y-107320080D02*
X115013740Y-99710240D01*
X115552220Y-107858560D02*
X115013740Y-107320080D01*
X127926210Y-89926210D02*
X105145790Y-89926210D01*
X129848940Y-91848940D02*
X127926210Y-89926210D01*
X136000000Y-104000000D02*
X136000000Y-92625000D01*
X134920200Y-105079800D02*
X136000000Y-104000000D01*
X136000000Y-92625000D02*
X135223940Y-91848940D01*
X105145790Y-89926210D02*
X104317800Y-90754200D01*
X135223940Y-91848940D02*
X129848940Y-91848940D01*
X125730000Y-107858560D02*
X130202940Y-107858560D01*
X130202940Y-107858560D02*
X131141440Y-107858560D01*
X131141440Y-107858560D02*
X134000000Y-105000000D01*
%TD*%
D16*
%TO.N,GND*%
G36*
X107493957Y-109499400D02*
G01*
X98705568Y-109499400D01*
X98727394Y-107114894D01*
X98728359Y-107116920D01*
X98902412Y-107350269D01*
X99118645Y-107545178D01*
X99368748Y-107694157D01*
X99643109Y-107791481D01*
X99873000Y-107670814D01*
X99873000Y-106477000D01*
X100127000Y-106477000D01*
X100127000Y-107670814D01*
X100356891Y-107791481D01*
X100631252Y-107694157D01*
X100881355Y-107545178D01*
X101097588Y-107350269D01*
X101271641Y-107116920D01*
X101396825Y-106854099D01*
X101441476Y-106706890D01*
X101320155Y-106477000D01*
X100127000Y-106477000D01*
X99873000Y-106477000D01*
X99853000Y-106477000D01*
X99853000Y-106223000D01*
X99873000Y-106223000D01*
X99873000Y-106203000D01*
X100127000Y-106203000D01*
X100127000Y-106223000D01*
X101320155Y-106223000D01*
X101441476Y-105993110D01*
X101396825Y-105845901D01*
X101271641Y-105583080D01*
X101097588Y-105349731D01*
X100881355Y-105154822D01*
X100764466Y-105085195D01*
X100946632Y-104963475D01*
X101153475Y-104756632D01*
X101315990Y-104513411D01*
X101427932Y-104243158D01*
X101485000Y-103956260D01*
X101485000Y-103663740D01*
X101427932Y-103376842D01*
X101315990Y-103106589D01*
X101153475Y-102863368D01*
X100946632Y-102656525D01*
X100772240Y-102540000D01*
X100946632Y-102423475D01*
X101153475Y-102216632D01*
X101315990Y-101973411D01*
X101427932Y-101703158D01*
X101485000Y-101416260D01*
X101485000Y-101123740D01*
X101427932Y-100836842D01*
X101315990Y-100566589D01*
X101153475Y-100323368D01*
X100946632Y-100116525D01*
X100772240Y-100000000D01*
X100946632Y-99883475D01*
X101153475Y-99676632D01*
X101315990Y-99433411D01*
X101427932Y-99163158D01*
X101485000Y-98876260D01*
X101485000Y-98749802D01*
X101779800Y-99044602D01*
X101779801Y-100820088D01*
X101735863Y-100864026D01*
X101622595Y-101033544D01*
X101544574Y-101221902D01*
X101504800Y-101421861D01*
X101504800Y-101625739D01*
X101544574Y-101825698D01*
X101622595Y-102014056D01*
X101735863Y-102183574D01*
X101880026Y-102327737D01*
X102049544Y-102441005D01*
X102237902Y-102519026D01*
X102437861Y-102558800D01*
X102641739Y-102558800D01*
X102841698Y-102519026D01*
X103030056Y-102441005D01*
X103199574Y-102327737D01*
X103343737Y-102183574D01*
X103457005Y-102014056D01*
X103535026Y-101825698D01*
X103574800Y-101625739D01*
X103574800Y-101421861D01*
X103535026Y-101221902D01*
X103457005Y-101033544D01*
X103343737Y-100864026D01*
X103299800Y-100820089D01*
X103299800Y-98767133D01*
X103303477Y-98729800D01*
X103295972Y-98653600D01*
X107593232Y-98653600D01*
X107493957Y-109499400D01*
G37*
X107493957Y-109499400D02*
X98705568Y-109499400D01*
X98727394Y-107114894D01*
X98728359Y-107116920D01*
X98902412Y-107350269D01*
X99118645Y-107545178D01*
X99368748Y-107694157D01*
X99643109Y-107791481D01*
X99873000Y-107670814D01*
X99873000Y-106477000D01*
X100127000Y-106477000D01*
X100127000Y-107670814D01*
X100356891Y-107791481D01*
X100631252Y-107694157D01*
X100881355Y-107545178D01*
X101097588Y-107350269D01*
X101271641Y-107116920D01*
X101396825Y-106854099D01*
X101441476Y-106706890D01*
X101320155Y-106477000D01*
X100127000Y-106477000D01*
X99873000Y-106477000D01*
X99853000Y-106477000D01*
X99853000Y-106223000D01*
X99873000Y-106223000D01*
X99873000Y-106203000D01*
X100127000Y-106203000D01*
X100127000Y-106223000D01*
X101320155Y-106223000D01*
X101441476Y-105993110D01*
X101396825Y-105845901D01*
X101271641Y-105583080D01*
X101097588Y-105349731D01*
X100881355Y-105154822D01*
X100764466Y-105085195D01*
X100946632Y-104963475D01*
X101153475Y-104756632D01*
X101315990Y-104513411D01*
X101427932Y-104243158D01*
X101485000Y-103956260D01*
X101485000Y-103663740D01*
X101427932Y-103376842D01*
X101315990Y-103106589D01*
X101153475Y-102863368D01*
X100946632Y-102656525D01*
X100772240Y-102540000D01*
X100946632Y-102423475D01*
X101153475Y-102216632D01*
X101315990Y-101973411D01*
X101427932Y-101703158D01*
X101485000Y-101416260D01*
X101485000Y-101123740D01*
X101427932Y-100836842D01*
X101315990Y-100566589D01*
X101153475Y-100323368D01*
X100946632Y-100116525D01*
X100772240Y-100000000D01*
X100946632Y-99883475D01*
X101153475Y-99676632D01*
X101315990Y-99433411D01*
X101427932Y-99163158D01*
X101485000Y-98876260D01*
X101485000Y-98749802D01*
X101779800Y-99044602D01*
X101779801Y-100820088D01*
X101735863Y-100864026D01*
X101622595Y-101033544D01*
X101544574Y-101221902D01*
X101504800Y-101421861D01*
X101504800Y-101625739D01*
X101544574Y-101825698D01*
X101622595Y-102014056D01*
X101735863Y-102183574D01*
X101880026Y-102327737D01*
X102049544Y-102441005D01*
X102237902Y-102519026D01*
X102437861Y-102558800D01*
X102641739Y-102558800D01*
X102841698Y-102519026D01*
X103030056Y-102441005D01*
X103199574Y-102327737D01*
X103343737Y-102183574D01*
X103457005Y-102014056D01*
X103535026Y-101825698D01*
X103574800Y-101625739D01*
X103574800Y-101421861D01*
X103535026Y-101221902D01*
X103457005Y-101033544D01*
X103343737Y-100864026D01*
X103299800Y-100820089D01*
X103299800Y-98767133D01*
X103303477Y-98729800D01*
X103295972Y-98653600D01*
X107593232Y-98653600D01*
X107493957Y-109499400D01*
%TO.N,GNDA*%
G36*
X104278252Y-89718946D02*
G01*
X104277998Y-89719200D01*
X104215861Y-89719200D01*
X104015902Y-89758974D01*
X103827544Y-89836995D01*
X103658026Y-89950263D01*
X103513863Y-90094426D01*
X103400595Y-90263944D01*
X103322574Y-90452302D01*
X103282800Y-90652261D01*
X103282800Y-90856139D01*
X103322574Y-91056098D01*
X103400595Y-91244456D01*
X103513863Y-91413974D01*
X103658026Y-91558137D01*
X103827544Y-91671405D01*
X104015902Y-91749426D01*
X104215861Y-91789200D01*
X104419739Y-91789200D01*
X104619698Y-91749426D01*
X104808056Y-91671405D01*
X104977574Y-91558137D01*
X105121737Y-91413974D01*
X105235005Y-91244456D01*
X105313026Y-91056098D01*
X105352800Y-90856139D01*
X105352800Y-90794002D01*
X105460592Y-90686210D01*
X112147409Y-90686210D01*
X112112728Y-90800538D01*
X112100468Y-90925020D01*
X112100468Y-92275020D01*
X112112728Y-92399502D01*
X112149038Y-92519200D01*
X112208003Y-92629514D01*
X112287355Y-92726205D01*
X112384046Y-92805557D01*
X112494360Y-92864522D01*
X112614058Y-92900832D01*
X112738540Y-92913092D01*
X114088540Y-92913092D01*
X114213022Y-92900832D01*
X114332720Y-92864522D01*
X114443034Y-92805557D01*
X114539725Y-92726205D01*
X114553461Y-92709468D01*
X114553460Y-95984837D01*
X114549784Y-96022160D01*
X114553460Y-96059482D01*
X114553460Y-96059492D01*
X114564457Y-96171145D01*
X114606242Y-96308894D01*
X114607914Y-96314406D01*
X114678486Y-96446436D01*
X114700442Y-96473189D01*
X114773459Y-96562161D01*
X114802462Y-96585963D01*
X115065000Y-96848501D01*
X115065000Y-96901939D01*
X115104774Y-97101898D01*
X115182795Y-97290256D01*
X115296063Y-97459774D01*
X115440226Y-97603937D01*
X115609744Y-97717205D01*
X115798102Y-97795226D01*
X115998061Y-97835000D01*
X116201939Y-97835000D01*
X116401898Y-97795226D01*
X116590256Y-97717205D01*
X116759774Y-97603937D01*
X116903937Y-97459774D01*
X117017205Y-97290256D01*
X117095226Y-97101898D01*
X117135000Y-96901939D01*
X117135000Y-96698061D01*
X117095226Y-96498102D01*
X117017205Y-96309744D01*
X116903937Y-96140226D01*
X116759774Y-95996063D01*
X116590256Y-95882795D01*
X116401898Y-95804774D01*
X116201939Y-95765000D01*
X116131101Y-95765000D01*
X116073460Y-95707359D01*
X116073460Y-94632506D01*
X132106611Y-94632506D01*
X132153275Y-95000875D01*
X132270906Y-95353062D01*
X132396423Y-95587886D01*
X132686395Y-95713800D01*
X133820395Y-94579800D01*
X132686395Y-93445800D01*
X132396423Y-93571714D01*
X132230567Y-93903926D01*
X132132710Y-94262112D01*
X132106611Y-94632506D01*
X116073460Y-94632506D01*
X116073460Y-90686210D01*
X123790599Y-90686210D01*
X123771328Y-90749738D01*
X123759068Y-90874220D01*
X123759068Y-92224220D01*
X123771328Y-92348702D01*
X123807638Y-92468400D01*
X123866603Y-92578714D01*
X123945955Y-92675405D01*
X124042646Y-92754757D01*
X124152960Y-92813722D01*
X124272658Y-92850032D01*
X124397140Y-92862292D01*
X125747140Y-92862292D01*
X125871622Y-92850032D01*
X125991320Y-92813722D01*
X126101634Y-92754757D01*
X126198325Y-92675405D01*
X126277677Y-92578714D01*
X126336642Y-92468400D01*
X126372952Y-92348702D01*
X126385212Y-92224220D01*
X126385212Y-90874220D01*
X126372952Y-90749738D01*
X126353681Y-90686210D01*
X127611409Y-90686210D01*
X129285140Y-92359942D01*
X129308939Y-92388941D01*
X129424664Y-92483914D01*
X129556693Y-92554486D01*
X129699954Y-92597943D01*
X129811607Y-92608940D01*
X129811617Y-92608940D01*
X129848940Y-92612616D01*
X129886263Y-92608940D01*
X134909139Y-92608940D01*
X135240001Y-92939803D01*
X135240001Y-93160191D01*
X135133999Y-93266193D01*
X135008086Y-92976223D01*
X134675874Y-92810367D01*
X134317688Y-92712510D01*
X133947294Y-92686411D01*
X133578925Y-92733075D01*
X133226738Y-92850706D01*
X132991914Y-92976223D01*
X132866000Y-93266195D01*
X134000000Y-94400195D01*
X134014143Y-94386053D01*
X134193748Y-94565658D01*
X134179605Y-94579800D01*
X134193748Y-94593943D01*
X134014143Y-94773548D01*
X134000000Y-94759405D01*
X132866000Y-95893405D01*
X132991914Y-96183377D01*
X133291518Y-96332953D01*
X133107118Y-96409334D01*
X132798382Y-96615625D01*
X132535825Y-96878182D01*
X132329534Y-97186918D01*
X132187439Y-97529966D01*
X132115000Y-97894144D01*
X132115000Y-98265456D01*
X132187439Y-98629634D01*
X132329534Y-98972682D01*
X132535825Y-99281418D01*
X132798382Y-99543975D01*
X133107118Y-99750266D01*
X133294756Y-99827988D01*
X133226738Y-99850706D01*
X132991914Y-99976223D01*
X132866000Y-100266195D01*
X134000000Y-101400195D01*
X134014143Y-101386053D01*
X134193748Y-101565658D01*
X134179605Y-101579800D01*
X134193748Y-101593943D01*
X134014143Y-101773548D01*
X134000000Y-101759405D01*
X132866000Y-102893405D01*
X132991914Y-103183377D01*
X133291518Y-103332953D01*
X133107118Y-103409334D01*
X132798382Y-103615625D01*
X132535825Y-103878182D01*
X132329534Y-104186918D01*
X132187439Y-104529966D01*
X132115000Y-104894144D01*
X132115000Y-105265456D01*
X132187439Y-105629634D01*
X132219108Y-105706090D01*
X130826639Y-107098560D01*
X126433711Y-107098560D01*
X126389774Y-107054623D01*
X126220256Y-106941355D01*
X126031898Y-106863334D01*
X125831939Y-106823560D01*
X125628061Y-106823560D01*
X125428102Y-106863334D01*
X125239744Y-106941355D01*
X125070226Y-107054623D01*
X125026289Y-107098560D01*
X115867022Y-107098560D01*
X115773740Y-107005279D01*
X115773740Y-101632506D01*
X132106611Y-101632506D01*
X132153275Y-102000875D01*
X132270906Y-102353062D01*
X132396423Y-102587886D01*
X132686395Y-102713800D01*
X133820395Y-101579800D01*
X132686395Y-100445800D01*
X132396423Y-100571714D01*
X132230567Y-100903926D01*
X132132710Y-101262112D01*
X132106611Y-101632506D01*
X115773740Y-101632506D01*
X115773740Y-100025041D01*
X115838401Y-99960380D01*
X115900539Y-99960380D01*
X116100498Y-99920606D01*
X116288856Y-99842585D01*
X116458374Y-99729317D01*
X116602537Y-99585154D01*
X116715805Y-99415636D01*
X116793826Y-99227278D01*
X116833600Y-99027319D01*
X116833600Y-98823441D01*
X116793826Y-98623482D01*
X116715805Y-98435124D01*
X116602537Y-98265606D01*
X116458374Y-98121443D01*
X116288856Y-98008175D01*
X116100498Y-97930154D01*
X115900539Y-97890380D01*
X115696661Y-97890380D01*
X115496702Y-97930154D01*
X115308344Y-98008175D01*
X115138826Y-98121443D01*
X114994663Y-98265606D01*
X114881395Y-98435124D01*
X114803374Y-98623482D01*
X114763600Y-98823441D01*
X114763600Y-98885579D01*
X114502738Y-99146441D01*
X114473740Y-99170239D01*
X114449942Y-99199237D01*
X114449941Y-99199238D01*
X114378766Y-99285964D01*
X114308194Y-99417994D01*
X114277920Y-99517798D01*
X114269980Y-99543975D01*
X114264738Y-99561255D01*
X114250064Y-99710240D01*
X114253741Y-99747572D01*
X114253740Y-107282758D01*
X114250064Y-107320080D01*
X114253740Y-107357402D01*
X114253740Y-107357412D01*
X114264737Y-107469065D01*
X114264784Y-107469220D01*
X108891523Y-107442636D01*
X109035838Y-96788420D01*
X109033734Y-96763613D01*
X109026830Y-96739693D01*
X109015393Y-96717579D01*
X108999861Y-96698122D01*
X108980831Y-96682069D01*
X108959036Y-96670036D01*
X108935311Y-96662487D01*
X108908379Y-96659701D01*
X102192469Y-96684621D01*
X102296612Y-89713165D01*
X104278252Y-89718946D01*
G37*
X104278252Y-89718946D02*
X104277998Y-89719200D01*
X104215861Y-89719200D01*
X104015902Y-89758974D01*
X103827544Y-89836995D01*
X103658026Y-89950263D01*
X103513863Y-90094426D01*
X103400595Y-90263944D01*
X103322574Y-90452302D01*
X103282800Y-90652261D01*
X103282800Y-90856139D01*
X103322574Y-91056098D01*
X103400595Y-91244456D01*
X103513863Y-91413974D01*
X103658026Y-91558137D01*
X103827544Y-91671405D01*
X104015902Y-91749426D01*
X104215861Y-91789200D01*
X104419739Y-91789200D01*
X104619698Y-91749426D01*
X104808056Y-91671405D01*
X104977574Y-91558137D01*
X105121737Y-91413974D01*
X105235005Y-91244456D01*
X105313026Y-91056098D01*
X105352800Y-90856139D01*
X105352800Y-90794002D01*
X105460592Y-90686210D01*
X112147409Y-90686210D01*
X112112728Y-90800538D01*
X112100468Y-90925020D01*
X112100468Y-92275020D01*
X112112728Y-92399502D01*
X112149038Y-92519200D01*
X112208003Y-92629514D01*
X112287355Y-92726205D01*
X112384046Y-92805557D01*
X112494360Y-92864522D01*
X112614058Y-92900832D01*
X112738540Y-92913092D01*
X114088540Y-92913092D01*
X114213022Y-92900832D01*
X114332720Y-92864522D01*
X114443034Y-92805557D01*
X114539725Y-92726205D01*
X114553461Y-92709468D01*
X114553460Y-95984837D01*
X114549784Y-96022160D01*
X114553460Y-96059482D01*
X114553460Y-96059492D01*
X114564457Y-96171145D01*
X114606242Y-96308894D01*
X114607914Y-96314406D01*
X114678486Y-96446436D01*
X114700442Y-96473189D01*
X114773459Y-96562161D01*
X114802462Y-96585963D01*
X115065000Y-96848501D01*
X115065000Y-96901939D01*
X115104774Y-97101898D01*
X115182795Y-97290256D01*
X115296063Y-97459774D01*
X115440226Y-97603937D01*
X115609744Y-97717205D01*
X115798102Y-97795226D01*
X115998061Y-97835000D01*
X116201939Y-97835000D01*
X116401898Y-97795226D01*
X116590256Y-97717205D01*
X116759774Y-97603937D01*
X116903937Y-97459774D01*
X117017205Y-97290256D01*
X117095226Y-97101898D01*
X117135000Y-96901939D01*
X117135000Y-96698061D01*
X117095226Y-96498102D01*
X117017205Y-96309744D01*
X116903937Y-96140226D01*
X116759774Y-95996063D01*
X116590256Y-95882795D01*
X116401898Y-95804774D01*
X116201939Y-95765000D01*
X116131101Y-95765000D01*
X116073460Y-95707359D01*
X116073460Y-94632506D01*
X132106611Y-94632506D01*
X132153275Y-95000875D01*
X132270906Y-95353062D01*
X132396423Y-95587886D01*
X132686395Y-95713800D01*
X133820395Y-94579800D01*
X132686395Y-93445800D01*
X132396423Y-93571714D01*
X132230567Y-93903926D01*
X132132710Y-94262112D01*
X132106611Y-94632506D01*
X116073460Y-94632506D01*
X116073460Y-90686210D01*
X123790599Y-90686210D01*
X123771328Y-90749738D01*
X123759068Y-90874220D01*
X123759068Y-92224220D01*
X123771328Y-92348702D01*
X123807638Y-92468400D01*
X123866603Y-92578714D01*
X123945955Y-92675405D01*
X124042646Y-92754757D01*
X124152960Y-92813722D01*
X124272658Y-92850032D01*
X124397140Y-92862292D01*
X125747140Y-92862292D01*
X125871622Y-92850032D01*
X125991320Y-92813722D01*
X126101634Y-92754757D01*
X126198325Y-92675405D01*
X126277677Y-92578714D01*
X126336642Y-92468400D01*
X126372952Y-92348702D01*
X126385212Y-92224220D01*
X126385212Y-90874220D01*
X126372952Y-90749738D01*
X126353681Y-90686210D01*
X127611409Y-90686210D01*
X129285140Y-92359942D01*
X129308939Y-92388941D01*
X129424664Y-92483914D01*
X129556693Y-92554486D01*
X129699954Y-92597943D01*
X129811607Y-92608940D01*
X129811617Y-92608940D01*
X129848940Y-92612616D01*
X129886263Y-92608940D01*
X134909139Y-92608940D01*
X135240001Y-92939803D01*
X135240001Y-93160191D01*
X135133999Y-93266193D01*
X135008086Y-92976223D01*
X134675874Y-92810367D01*
X134317688Y-92712510D01*
X133947294Y-92686411D01*
X133578925Y-92733075D01*
X133226738Y-92850706D01*
X132991914Y-92976223D01*
X132866000Y-93266195D01*
X134000000Y-94400195D01*
X134014143Y-94386053D01*
X134193748Y-94565658D01*
X134179605Y-94579800D01*
X134193748Y-94593943D01*
X134014143Y-94773548D01*
X134000000Y-94759405D01*
X132866000Y-95893405D01*
X132991914Y-96183377D01*
X133291518Y-96332953D01*
X133107118Y-96409334D01*
X132798382Y-96615625D01*
X132535825Y-96878182D01*
X132329534Y-97186918D01*
X132187439Y-97529966D01*
X132115000Y-97894144D01*
X132115000Y-98265456D01*
X132187439Y-98629634D01*
X132329534Y-98972682D01*
X132535825Y-99281418D01*
X132798382Y-99543975D01*
X133107118Y-99750266D01*
X133294756Y-99827988D01*
X133226738Y-99850706D01*
X132991914Y-99976223D01*
X132866000Y-100266195D01*
X134000000Y-101400195D01*
X134014143Y-101386053D01*
X134193748Y-101565658D01*
X134179605Y-101579800D01*
X134193748Y-101593943D01*
X134014143Y-101773548D01*
X134000000Y-101759405D01*
X132866000Y-102893405D01*
X132991914Y-103183377D01*
X133291518Y-103332953D01*
X133107118Y-103409334D01*
X132798382Y-103615625D01*
X132535825Y-103878182D01*
X132329534Y-104186918D01*
X132187439Y-104529966D01*
X132115000Y-104894144D01*
X132115000Y-105265456D01*
X132187439Y-105629634D01*
X132219108Y-105706090D01*
X130826639Y-107098560D01*
X126433711Y-107098560D01*
X126389774Y-107054623D01*
X126220256Y-106941355D01*
X126031898Y-106863334D01*
X125831939Y-106823560D01*
X125628061Y-106823560D01*
X125428102Y-106863334D01*
X125239744Y-106941355D01*
X125070226Y-107054623D01*
X125026289Y-107098560D01*
X115867022Y-107098560D01*
X115773740Y-107005279D01*
X115773740Y-101632506D01*
X132106611Y-101632506D01*
X132153275Y-102000875D01*
X132270906Y-102353062D01*
X132396423Y-102587886D01*
X132686395Y-102713800D01*
X133820395Y-101579800D01*
X132686395Y-100445800D01*
X132396423Y-100571714D01*
X132230567Y-100903926D01*
X132132710Y-101262112D01*
X132106611Y-101632506D01*
X115773740Y-101632506D01*
X115773740Y-100025041D01*
X115838401Y-99960380D01*
X115900539Y-99960380D01*
X116100498Y-99920606D01*
X116288856Y-99842585D01*
X116458374Y-99729317D01*
X116602537Y-99585154D01*
X116715805Y-99415636D01*
X116793826Y-99227278D01*
X116833600Y-99027319D01*
X116833600Y-98823441D01*
X116793826Y-98623482D01*
X116715805Y-98435124D01*
X116602537Y-98265606D01*
X116458374Y-98121443D01*
X116288856Y-98008175D01*
X116100498Y-97930154D01*
X115900539Y-97890380D01*
X115696661Y-97890380D01*
X115496702Y-97930154D01*
X115308344Y-98008175D01*
X115138826Y-98121443D01*
X114994663Y-98265606D01*
X114881395Y-98435124D01*
X114803374Y-98623482D01*
X114763600Y-98823441D01*
X114763600Y-98885579D01*
X114502738Y-99146441D01*
X114473740Y-99170239D01*
X114449942Y-99199237D01*
X114449941Y-99199238D01*
X114378766Y-99285964D01*
X114308194Y-99417994D01*
X114277920Y-99517798D01*
X114269980Y-99543975D01*
X114264738Y-99561255D01*
X114250064Y-99710240D01*
X114253741Y-99747572D01*
X114253740Y-107282758D01*
X114250064Y-107320080D01*
X114253740Y-107357402D01*
X114253740Y-107357412D01*
X114264737Y-107469065D01*
X114264784Y-107469220D01*
X108891523Y-107442636D01*
X109035838Y-96788420D01*
X109033734Y-96763613D01*
X109026830Y-96739693D01*
X109015393Y-96717579D01*
X108999861Y-96698122D01*
X108980831Y-96682069D01*
X108959036Y-96670036D01*
X108935311Y-96662487D01*
X108908379Y-96659701D01*
X102192469Y-96684621D01*
X102296612Y-89713165D01*
X104278252Y-89718946D01*
%TD*%
M02*
