%TF.GenerationSoftware,KiCad,Pcbnew,(5.1.6)-1*%
%TF.CreationDate,2020-11-03T17:55:30-08:00*%
%TF.ProjectId,adc_i2c_iso,6164635f-6932-4635-9f69-736f2e6b6963,rev?*%
%TF.SameCoordinates,Original*%
%TF.FileFunction,Legend,Top*%
%TF.FilePolarity,Positive*%
%FSLAX46Y46*%
G04 Gerber Fmt 4.6, Leading zero omitted, Abs format (unit mm)*
G04 Created by KiCad (PCBNEW (5.1.6)-1) date 2020-11-03 17:55:30*
%MOMM*%
%LPD*%
G01*
G04 APERTURE LIST*
%ADD10C,0.120000*%
%ADD11C,0.100000*%
%ADD12C,0.150000*%
G04 APERTURE END LIST*
D10*
X108316095Y-106142380D02*
X108316095Y-105142380D01*
X108744666Y-105237619D02*
X108792285Y-105190000D01*
X108887523Y-105142380D01*
X109125619Y-105142380D01*
X109220857Y-105190000D01*
X109268476Y-105237619D01*
X109316095Y-105332857D01*
X109316095Y-105428095D01*
X109268476Y-105570952D01*
X108697047Y-106142380D01*
X109316095Y-106142380D01*
X110316095Y-106047142D02*
X110268476Y-106094761D01*
X110125619Y-106142380D01*
X110030380Y-106142380D01*
X109887523Y-106094761D01*
X109792285Y-105999523D01*
X109744666Y-105904285D01*
X109697047Y-105713809D01*
X109697047Y-105570952D01*
X109744666Y-105380476D01*
X109792285Y-105285238D01*
X109887523Y-105190000D01*
X110030380Y-105142380D01*
X110125619Y-105142380D01*
X110268476Y-105190000D01*
X110316095Y-105237619D01*
X108268476Y-106857619D02*
X108316095Y-106810000D01*
X108411333Y-106762380D01*
X108649428Y-106762380D01*
X108744666Y-106810000D01*
X108792285Y-106857619D01*
X108839904Y-106952857D01*
X108839904Y-107048095D01*
X108792285Y-107190952D01*
X108220857Y-107762380D01*
X108839904Y-107762380D01*
X109268476Y-107667142D02*
X109316095Y-107714761D01*
X109268476Y-107762380D01*
X109220857Y-107714761D01*
X109268476Y-107667142D01*
X109268476Y-107762380D01*
X109697047Y-106857619D02*
X109744666Y-106810000D01*
X109839904Y-106762380D01*
X110078000Y-106762380D01*
X110173238Y-106810000D01*
X110220857Y-106857619D01*
X110268476Y-106952857D01*
X110268476Y-107048095D01*
X110220857Y-107190952D01*
X109649428Y-107762380D01*
X110268476Y-107762380D01*
X110697047Y-107762380D02*
X110697047Y-106762380D01*
X111268476Y-107762380D02*
X110839904Y-107190952D01*
X111268476Y-106762380D02*
X110697047Y-107333809D01*
X107500000Y-108250000D02*
X107000000Y-108250000D01*
X107500000Y-104250000D02*
X107500000Y-108250000D01*
X107000000Y-104250000D02*
X107500000Y-104250000D01*
X128161960Y-107293800D02*
X129161960Y-106960467D01*
X128161960Y-106627134D01*
X129257199Y-106531896D02*
X129257199Y-105769991D01*
X129161960Y-105531896D02*
X128161960Y-105531896D01*
X129114341Y-105103324D02*
X129161960Y-104960467D01*
X129161960Y-104722372D01*
X129114341Y-104627134D01*
X129066722Y-104579515D01*
X128971484Y-104531896D01*
X128876246Y-104531896D01*
X128781008Y-104579515D01*
X128733389Y-104627134D01*
X128685770Y-104722372D01*
X128638151Y-104912848D01*
X128590532Y-105008086D01*
X128542913Y-105055705D01*
X128447675Y-105103324D01*
X128352437Y-105103324D01*
X128257199Y-105055705D01*
X128209580Y-105008086D01*
X128161960Y-104912848D01*
X128161960Y-104674753D01*
X128209580Y-104531896D01*
X128161960Y-103912848D02*
X128161960Y-103722372D01*
X128209580Y-103627134D01*
X128304818Y-103531896D01*
X128495294Y-103484277D01*
X128828627Y-103484277D01*
X129019103Y-103531896D01*
X129114341Y-103627134D01*
X129161960Y-103722372D01*
X129161960Y-103912848D01*
X129114341Y-104008086D01*
X129019103Y-104103324D01*
X128828627Y-104150943D01*
X128495294Y-104150943D01*
X128304818Y-104103324D01*
X128209580Y-104008086D01*
X128161960Y-103912848D01*
X128161960Y-99161789D02*
X129161960Y-98828456D01*
X128161960Y-98495122D01*
X129161960Y-98161789D02*
X128495294Y-98161789D01*
X128161960Y-98161789D02*
X128209580Y-98209408D01*
X128257199Y-98161789D01*
X128209580Y-98114170D01*
X128161960Y-98161789D01*
X128257199Y-98161789D01*
X128495294Y-97685599D02*
X129161960Y-97685599D01*
X128590532Y-97685599D02*
X128542913Y-97637980D01*
X128495294Y-97542741D01*
X128495294Y-97399884D01*
X128542913Y-97304646D01*
X128638151Y-97257027D01*
X129161960Y-97257027D01*
X128209580Y-102174277D02*
X128161960Y-102269515D01*
X128161960Y-102412372D01*
X128209580Y-102555229D01*
X128304818Y-102650467D01*
X128400056Y-102698086D01*
X128590532Y-102745705D01*
X128733389Y-102745705D01*
X128923865Y-102698086D01*
X129019103Y-102650467D01*
X129114341Y-102555229D01*
X129161960Y-102412372D01*
X129161960Y-102317134D01*
X129114341Y-102174277D01*
X129066722Y-102126658D01*
X128733389Y-102126658D01*
X128733389Y-102317134D01*
X128495294Y-101698086D02*
X129161960Y-101698086D01*
X128590532Y-101698086D02*
X128542913Y-101650467D01*
X128495294Y-101555229D01*
X128495294Y-101412372D01*
X128542913Y-101317134D01*
X128638151Y-101269515D01*
X129161960Y-101269515D01*
X129161960Y-100364753D02*
X128161960Y-100364753D01*
X129114341Y-100364753D02*
X129161960Y-100459991D01*
X129161960Y-100650467D01*
X129114341Y-100745705D01*
X129066722Y-100793324D01*
X128971484Y-100840943D01*
X128685770Y-100840943D01*
X128590532Y-100793324D01*
X128542913Y-100745705D01*
X128495294Y-100650467D01*
X128495294Y-100459991D01*
X128542913Y-100364753D01*
X128209580Y-95049577D02*
X128161960Y-95144815D01*
X128161960Y-95287672D01*
X128209580Y-95430529D01*
X128304818Y-95525767D01*
X128400056Y-95573386D01*
X128590532Y-95621005D01*
X128733389Y-95621005D01*
X128923865Y-95573386D01*
X129019103Y-95525767D01*
X129114341Y-95430529D01*
X129161960Y-95287672D01*
X129161960Y-95192434D01*
X129114341Y-95049577D01*
X129066722Y-95001958D01*
X128733389Y-95001958D01*
X128733389Y-95192434D01*
X128495294Y-94573386D02*
X129161960Y-94573386D01*
X128590532Y-94573386D02*
X128542913Y-94525767D01*
X128495294Y-94430529D01*
X128495294Y-94287672D01*
X128542913Y-94192434D01*
X128638151Y-94144815D01*
X129161960Y-94144815D01*
X129161960Y-93240053D02*
X128161960Y-93240053D01*
X129114341Y-93240053D02*
X129161960Y-93335291D01*
X129161960Y-93525767D01*
X129114341Y-93621005D01*
X129066722Y-93668624D01*
X128971484Y-93716243D01*
X128685770Y-93716243D01*
X128590532Y-93668624D01*
X128542913Y-93621005D01*
X128495294Y-93525767D01*
X128495294Y-93335291D01*
X128542913Y-93240053D01*
X115353336Y-90847466D02*
X115829526Y-90847466D01*
X115258098Y-91133180D02*
X115591431Y-90133180D01*
X115924764Y-91133180D01*
X116258098Y-91133180D02*
X116258098Y-90133180D01*
X116496193Y-90133180D01*
X116639050Y-90180800D01*
X116734288Y-90276038D01*
X116781907Y-90371276D01*
X116829526Y-90561752D01*
X116829526Y-90704609D01*
X116781907Y-90895085D01*
X116734288Y-90990323D01*
X116639050Y-91085561D01*
X116496193Y-91133180D01*
X116258098Y-91133180D01*
X117829526Y-91037942D02*
X117781907Y-91085561D01*
X117639050Y-91133180D01*
X117543812Y-91133180D01*
X117400955Y-91085561D01*
X117305717Y-90990323D01*
X117258098Y-90895085D01*
X117210479Y-90704609D01*
X117210479Y-90561752D01*
X117258098Y-90371276D01*
X117305717Y-90276038D01*
X117400955Y-90180800D01*
X117543812Y-90133180D01*
X117639050Y-90133180D01*
X117781907Y-90180800D01*
X117829526Y-90228419D01*
X115400955Y-92753180D02*
X115400955Y-92086514D01*
X115400955Y-91753180D02*
X115353336Y-91800800D01*
X115400955Y-91848419D01*
X115448574Y-91800800D01*
X115400955Y-91753180D01*
X115400955Y-91848419D01*
X115877145Y-92086514D02*
X115877145Y-92753180D01*
X115877145Y-92181752D02*
X115924764Y-92134133D01*
X116020002Y-92086514D01*
X116162860Y-92086514D01*
X116258098Y-92134133D01*
X116305717Y-92229371D01*
X116305717Y-92753180D01*
X126767455Y-91133180D02*
X126767455Y-90133180D01*
X127005550Y-90133180D01*
X127148407Y-90180800D01*
X127243645Y-90276038D01*
X127291264Y-90371276D01*
X127338883Y-90561752D01*
X127338883Y-90704609D01*
X127291264Y-90895085D01*
X127243645Y-90990323D01*
X127148407Y-91085561D01*
X127005550Y-91133180D01*
X126767455Y-91133180D01*
X127767455Y-91133180D02*
X127767455Y-90466514D01*
X127767455Y-90133180D02*
X127719836Y-90180800D01*
X127767455Y-90228419D01*
X127815074Y-90180800D01*
X127767455Y-90133180D01*
X127767455Y-90228419D01*
X128148407Y-90466514D02*
X128386502Y-91133180D01*
X128624598Y-90466514D01*
X129005550Y-91133180D02*
X129005550Y-90466514D01*
X129005550Y-90133180D02*
X128957931Y-90180800D01*
X129005550Y-90228419D01*
X129053169Y-90180800D01*
X129005550Y-90133180D01*
X129005550Y-90228419D01*
X129910312Y-91133180D02*
X129910312Y-90133180D01*
X129910312Y-91085561D02*
X129815074Y-91133180D01*
X129624598Y-91133180D01*
X129529360Y-91085561D01*
X129481740Y-91037942D01*
X129434121Y-90942704D01*
X129434121Y-90656990D01*
X129481740Y-90561752D01*
X129529360Y-90514133D01*
X129624598Y-90466514D01*
X129815074Y-90466514D01*
X129910312Y-90514133D01*
X130767455Y-91085561D02*
X130672217Y-91133180D01*
X130481740Y-91133180D01*
X130386502Y-91085561D01*
X130338883Y-90990323D01*
X130338883Y-90609371D01*
X130386502Y-90514133D01*
X130481740Y-90466514D01*
X130672217Y-90466514D01*
X130767455Y-90514133D01*
X130815074Y-90609371D01*
X130815074Y-90704609D01*
X130338883Y-90799847D01*
X131243645Y-91133180D02*
X131243645Y-90466514D01*
X131243645Y-90656990D02*
X131291264Y-90561752D01*
X131338883Y-90514133D01*
X131434121Y-90466514D01*
X131529360Y-90466514D01*
X126910312Y-92753180D02*
X126815074Y-92705561D01*
X126767455Y-92657942D01*
X126719836Y-92562704D01*
X126719836Y-92276990D01*
X126767455Y-92181752D01*
X126815074Y-92134133D01*
X126910312Y-92086514D01*
X127053169Y-92086514D01*
X127148407Y-92134133D01*
X127196026Y-92181752D01*
X127243645Y-92276990D01*
X127243645Y-92562704D01*
X127196026Y-92657942D01*
X127148407Y-92705561D01*
X127053169Y-92753180D01*
X126910312Y-92753180D01*
X128100788Y-92086514D02*
X128100788Y-92753180D01*
X127672217Y-92086514D02*
X127672217Y-92610323D01*
X127719836Y-92705561D01*
X127815074Y-92753180D01*
X127957931Y-92753180D01*
X128053169Y-92705561D01*
X128100788Y-92657942D01*
X128434121Y-92086514D02*
X128815074Y-92086514D01*
X128576979Y-91753180D02*
X128576979Y-92610323D01*
X128624598Y-92705561D01*
X128719836Y-92753180D01*
X128815074Y-92753180D01*
D11*
X119023664Y-108683186D02*
X119499855Y-108683186D01*
X118928426Y-108968900D02*
X119261760Y-107968900D01*
X119595093Y-108968900D01*
X119928426Y-108968900D02*
X119928426Y-108302234D01*
X119928426Y-108397472D02*
X119976045Y-108349853D01*
X120071283Y-108302234D01*
X120214140Y-108302234D01*
X120309379Y-108349853D01*
X120356998Y-108445091D01*
X120356998Y-108968900D01*
X120356998Y-108445091D02*
X120404617Y-108349853D01*
X120499855Y-108302234D01*
X120642712Y-108302234D01*
X120737950Y-108349853D01*
X120785569Y-108445091D01*
X120785569Y-108968900D01*
X121261760Y-108302234D02*
X121261760Y-109302234D01*
X121261760Y-108349853D02*
X121356998Y-108302234D01*
X121547474Y-108302234D01*
X121642712Y-108349853D01*
X121690331Y-108397472D01*
X121737950Y-108492710D01*
X121737950Y-108778424D01*
X121690331Y-108873662D01*
X121642712Y-108921281D01*
X121547474Y-108968900D01*
X121356998Y-108968900D01*
X121261760Y-108921281D01*
X119118902Y-110568900D02*
X119118902Y-109568900D01*
X119595093Y-109902234D02*
X119595093Y-110568900D01*
X119595093Y-109997472D02*
X119642712Y-109949853D01*
X119737950Y-109902234D01*
X119880807Y-109902234D01*
X119976045Y-109949853D01*
X120023664Y-110045091D01*
X120023664Y-110568900D01*
X120499855Y-109902234D02*
X120499855Y-110902234D01*
X120499855Y-109949853D02*
X120595093Y-109902234D01*
X120785569Y-109902234D01*
X120880807Y-109949853D01*
X120928426Y-109997472D01*
X120976045Y-110092710D01*
X120976045Y-110378424D01*
X120928426Y-110473662D01*
X120880807Y-110521281D01*
X120785569Y-110568900D01*
X120595093Y-110568900D01*
X120499855Y-110521281D01*
X121833188Y-109902234D02*
X121833188Y-110568900D01*
X121404617Y-109902234D02*
X121404617Y-110426043D01*
X121452236Y-110521281D01*
X121547474Y-110568900D01*
X121690331Y-110568900D01*
X121785569Y-110521281D01*
X121833188Y-110473662D01*
X122166521Y-109902234D02*
X122547474Y-109902234D01*
X122309379Y-109568900D02*
X122309379Y-110426043D01*
X122356998Y-110521281D01*
X122452236Y-110568900D01*
X122547474Y-110568900D01*
D12*
X98934264Y-110560059D02*
X98934264Y-109460059D01*
X99405693Y-110507678D02*
X99510455Y-110560059D01*
X99719979Y-110560059D01*
X99824740Y-110507678D01*
X99877121Y-110402916D01*
X99877121Y-110350535D01*
X99824740Y-110245773D01*
X99719979Y-110193392D01*
X99562836Y-110193392D01*
X99458074Y-110141011D01*
X99405693Y-110036249D01*
X99405693Y-109983868D01*
X99458074Y-109879106D01*
X99562836Y-109826725D01*
X99719979Y-109826725D01*
X99824740Y-109879106D01*
X100505693Y-110560059D02*
X100400931Y-110507678D01*
X100348550Y-110455297D01*
X100296169Y-110350535D01*
X100296169Y-110036249D01*
X100348550Y-109931487D01*
X100400931Y-109879106D01*
X100505693Y-109826725D01*
X100662836Y-109826725D01*
X100767598Y-109879106D01*
X100819979Y-109931487D01*
X100872360Y-110036249D01*
X100872360Y-110350535D01*
X100819979Y-110455297D01*
X100767598Y-110507678D01*
X100662836Y-110560059D01*
X100505693Y-110560059D01*
X101500931Y-110560059D02*
X101396169Y-110507678D01*
X101343788Y-110402916D01*
X101343788Y-109460059D01*
X102391407Y-110560059D02*
X102391407Y-109983868D01*
X102339026Y-109879106D01*
X102234264Y-109826725D01*
X102024740Y-109826725D01*
X101919979Y-109879106D01*
X102391407Y-110507678D02*
X102286645Y-110560059D01*
X102024740Y-110560059D01*
X101919979Y-110507678D01*
X101867598Y-110402916D01*
X101867598Y-110298154D01*
X101919979Y-110193392D01*
X102024740Y-110141011D01*
X102286645Y-110141011D01*
X102391407Y-110088630D01*
X102758074Y-109826725D02*
X103177121Y-109826725D01*
X102915217Y-109460059D02*
X102915217Y-110402916D01*
X102967598Y-110507678D01*
X103072360Y-110560059D01*
X103177121Y-110560059D01*
X103962836Y-110507678D02*
X103858074Y-110560059D01*
X103648550Y-110560059D01*
X103543788Y-110507678D01*
X103491407Y-110402916D01*
X103491407Y-109983868D01*
X103543788Y-109879106D01*
X103648550Y-109826725D01*
X103858074Y-109826725D01*
X103962836Y-109879106D01*
X104015217Y-109983868D01*
X104015217Y-110088630D01*
X103491407Y-110193392D01*
X104958074Y-110560059D02*
X104958074Y-109460059D01*
X104958074Y-110507678D02*
X104853312Y-110560059D01*
X104643788Y-110560059D01*
X104539026Y-110507678D01*
X104486645Y-110455297D01*
X104434264Y-110350535D01*
X104434264Y-110036249D01*
X104486645Y-109931487D01*
X104539026Y-109879106D01*
X104643788Y-109826725D01*
X104853312Y-109826725D01*
X104958074Y-109879106D01*
X106267598Y-110245773D02*
X106791407Y-110245773D01*
X106162836Y-110560059D02*
X106529502Y-109460059D01*
X106896169Y-110560059D01*
X107262836Y-110560059D02*
X107262836Y-109460059D01*
X107524740Y-109460059D01*
X107681883Y-109512440D01*
X107786645Y-109617201D01*
X107839026Y-109721963D01*
X107891407Y-109931487D01*
X107891407Y-110088630D01*
X107839026Y-110298154D01*
X107786645Y-110402916D01*
X107681883Y-110507678D01*
X107524740Y-110560059D01*
X107262836Y-110560059D01*
X108991407Y-110455297D02*
X108939026Y-110507678D01*
X108781883Y-110560059D01*
X108677121Y-110560059D01*
X108519979Y-110507678D01*
X108415217Y-110402916D01*
X108362836Y-110298154D01*
X108310455Y-110088630D01*
X108310455Y-109931487D01*
X108362836Y-109721963D01*
X108415217Y-109617201D01*
X108519979Y-109512440D01*
X108677121Y-109460059D01*
X108781883Y-109460059D01*
X108939026Y-109512440D01*
X108991407Y-109564820D01*
X110143788Y-109460059D02*
X110510455Y-110560059D01*
X110877121Y-109460059D01*
X111819979Y-110560059D02*
X111191407Y-110560059D01*
X111505693Y-110560059D02*
X111505693Y-109460059D01*
X111400931Y-109617201D01*
X111296169Y-109721963D01*
X111191407Y-109774344D01*
X112291407Y-110455297D02*
X112343788Y-110507678D01*
X112291407Y-110560059D01*
X112239026Y-110507678D01*
X112291407Y-110455297D01*
X112291407Y-110560059D01*
X113024740Y-109460059D02*
X113129502Y-109460059D01*
X113234264Y-109512440D01*
X113286645Y-109564820D01*
X113339026Y-109669582D01*
X113391407Y-109879106D01*
X113391407Y-110141011D01*
X113339026Y-110350535D01*
X113286645Y-110455297D01*
X113234264Y-110507678D01*
X113129502Y-110560059D01*
X113024740Y-110560059D01*
X112919979Y-110507678D01*
X112867598Y-110455297D01*
X112815217Y-110350535D01*
X112762836Y-110141011D01*
X112762836Y-109879106D01*
X112815217Y-109669582D01*
X112867598Y-109564820D01*
X112919979Y-109512440D01*
X113024740Y-109460059D01*
X99562836Y-112255297D02*
X99510455Y-112307678D01*
X99353312Y-112360059D01*
X99248550Y-112360059D01*
X99091407Y-112307678D01*
X98986645Y-112202916D01*
X98934264Y-112098154D01*
X98881883Y-111888630D01*
X98881883Y-111731487D01*
X98934264Y-111521963D01*
X98986645Y-111417201D01*
X99091407Y-111312440D01*
X99248550Y-111260059D01*
X99353312Y-111260059D01*
X99510455Y-111312440D01*
X99562836Y-111364820D01*
X100191407Y-112360059D02*
X100086645Y-112307678D01*
X100034264Y-112255297D01*
X99981883Y-112150535D01*
X99981883Y-111836249D01*
X100034264Y-111731487D01*
X100086645Y-111679106D01*
X100191407Y-111626725D01*
X100348550Y-111626725D01*
X100453312Y-111679106D01*
X100505693Y-111731487D01*
X100558074Y-111836249D01*
X100558074Y-112150535D01*
X100505693Y-112255297D01*
X100453312Y-112307678D01*
X100348550Y-112360059D01*
X100191407Y-112360059D01*
X101029502Y-111626725D02*
X101029502Y-112726725D01*
X101029502Y-111679106D02*
X101134264Y-111626725D01*
X101343788Y-111626725D01*
X101448550Y-111679106D01*
X101500931Y-111731487D01*
X101553312Y-111836249D01*
X101553312Y-112150535D01*
X101500931Y-112255297D01*
X101448550Y-112307678D01*
X101343788Y-112360059D01*
X101134264Y-112360059D01*
X101029502Y-112307678D01*
X101919979Y-111626725D02*
X102181883Y-112360059D01*
X102443788Y-111626725D02*
X102181883Y-112360059D01*
X102077121Y-112621963D01*
X102024740Y-112674344D01*
X101919979Y-112726725D01*
X102862836Y-112360059D02*
X102862836Y-111626725D01*
X102862836Y-111836249D02*
X102915217Y-111731487D01*
X102967598Y-111679106D01*
X103072360Y-111626725D01*
X103177121Y-111626725D01*
X103543788Y-112360059D02*
X103543788Y-111626725D01*
X103543788Y-111260059D02*
X103491407Y-111312440D01*
X103543788Y-111364820D01*
X103596169Y-111312440D01*
X103543788Y-111260059D01*
X103543788Y-111364820D01*
X104539026Y-111626725D02*
X104539026Y-112517201D01*
X104486645Y-112621963D01*
X104434264Y-112674344D01*
X104329502Y-112726725D01*
X104172360Y-112726725D01*
X104067598Y-112674344D01*
X104539026Y-112307678D02*
X104434264Y-112360059D01*
X104224740Y-112360059D01*
X104119979Y-112307678D01*
X104067598Y-112255297D01*
X104015217Y-112150535D01*
X104015217Y-111836249D01*
X104067598Y-111731487D01*
X104119979Y-111679106D01*
X104224740Y-111626725D01*
X104434264Y-111626725D01*
X104539026Y-111679106D01*
X105062836Y-112360059D02*
X105062836Y-111260059D01*
X105534264Y-112360059D02*
X105534264Y-111783868D01*
X105481883Y-111679106D01*
X105377121Y-111626725D01*
X105219979Y-111626725D01*
X105115217Y-111679106D01*
X105062836Y-111731487D01*
X105900931Y-111626725D02*
X106319979Y-111626725D01*
X106058074Y-111260059D02*
X106058074Y-112202916D01*
X106110455Y-112307678D01*
X106215217Y-112360059D01*
X106319979Y-112360059D01*
X107839026Y-112779106D02*
X107786645Y-112726725D01*
X107681883Y-112569582D01*
X107629502Y-112464820D01*
X107577121Y-112307678D01*
X107524740Y-112045773D01*
X107524740Y-111836249D01*
X107577121Y-111574344D01*
X107629502Y-111417201D01*
X107681883Y-111312440D01*
X107786645Y-111155297D01*
X107839026Y-111102916D01*
X108729502Y-112307678D02*
X108624740Y-112360059D01*
X108415217Y-112360059D01*
X108310455Y-112307678D01*
X108258074Y-112255297D01*
X108205693Y-112150535D01*
X108205693Y-111836249D01*
X108258074Y-111731487D01*
X108310455Y-111679106D01*
X108415217Y-111626725D01*
X108624740Y-111626725D01*
X108729502Y-111679106D01*
X109096169Y-112779106D02*
X109148550Y-112726725D01*
X109253312Y-112569582D01*
X109305693Y-112464820D01*
X109358074Y-112307678D01*
X109410455Y-112045773D01*
X109410455Y-111836249D01*
X109358074Y-111574344D01*
X109305693Y-111417201D01*
X109253312Y-111312440D01*
X109148550Y-111155297D01*
X109096169Y-111102916D01*
X110719979Y-111364820D02*
X110772360Y-111312440D01*
X110877121Y-111260059D01*
X111139026Y-111260059D01*
X111243788Y-111312440D01*
X111296169Y-111364820D01*
X111348550Y-111469582D01*
X111348550Y-111574344D01*
X111296169Y-111731487D01*
X110667598Y-112360059D01*
X111348550Y-112360059D01*
X112029502Y-111260059D02*
X112134264Y-111260059D01*
X112239026Y-111312440D01*
X112291407Y-111364820D01*
X112343788Y-111469582D01*
X112396169Y-111679106D01*
X112396169Y-111941011D01*
X112343788Y-112150535D01*
X112291407Y-112255297D01*
X112239026Y-112307678D01*
X112134264Y-112360059D01*
X112029502Y-112360059D01*
X111924740Y-112307678D01*
X111872360Y-112255297D01*
X111819979Y-112150535D01*
X111767598Y-111941011D01*
X111767598Y-111679106D01*
X111819979Y-111469582D01*
X111872360Y-111364820D01*
X111924740Y-111312440D01*
X112029502Y-111260059D01*
X112815217Y-111364820D02*
X112867598Y-111312440D01*
X112972360Y-111260059D01*
X113234264Y-111260059D01*
X113339026Y-111312440D01*
X113391407Y-111364820D01*
X113443788Y-111469582D01*
X113443788Y-111574344D01*
X113391407Y-111731487D01*
X112762836Y-112360059D01*
X113443788Y-112360059D01*
X114124740Y-111260059D02*
X114229502Y-111260059D01*
X114334264Y-111312440D01*
X114386645Y-111364820D01*
X114439026Y-111469582D01*
X114491407Y-111679106D01*
X114491407Y-111941011D01*
X114439026Y-112150535D01*
X114386645Y-112255297D01*
X114334264Y-112307678D01*
X114229502Y-112360059D01*
X114124740Y-112360059D01*
X114019979Y-112307678D01*
X113967598Y-112255297D01*
X113915217Y-112150535D01*
X113862836Y-111941011D01*
X113862836Y-111679106D01*
X113915217Y-111469582D01*
X113967598Y-111364820D01*
X114019979Y-111312440D01*
X114124740Y-111260059D01*
X115800931Y-112360059D02*
X115800931Y-111260059D01*
X116219979Y-111260059D01*
X116324740Y-111312440D01*
X116377121Y-111364820D01*
X116429502Y-111469582D01*
X116429502Y-111626725D01*
X116377121Y-111731487D01*
X116324740Y-111783868D01*
X116219979Y-111836249D01*
X115800931Y-111836249D01*
X117424740Y-112360059D02*
X116900931Y-112360059D01*
X116900931Y-111260059D01*
X118996169Y-111783868D02*
X119153312Y-111836249D01*
X119205693Y-111888630D01*
X119258074Y-111993392D01*
X119258074Y-112150535D01*
X119205693Y-112255297D01*
X119153312Y-112307678D01*
X119048550Y-112360059D01*
X118629502Y-112360059D01*
X118629502Y-111260059D01*
X118996169Y-111260059D01*
X119100931Y-111312440D01*
X119153312Y-111364820D01*
X119205693Y-111469582D01*
X119205693Y-111574344D01*
X119153312Y-111679106D01*
X119100931Y-111731487D01*
X118996169Y-111783868D01*
X118629502Y-111783868D01*
X120200931Y-112360059D02*
X120200931Y-111783868D01*
X120148550Y-111679106D01*
X120043788Y-111626725D01*
X119834264Y-111626725D01*
X119729502Y-111679106D01*
X120200931Y-112307678D02*
X120096169Y-112360059D01*
X119834264Y-112360059D01*
X119729502Y-112307678D01*
X119677121Y-112202916D01*
X119677121Y-112098154D01*
X119729502Y-111993392D01*
X119834264Y-111941011D01*
X120096169Y-111941011D01*
X120200931Y-111888630D01*
X120724740Y-112360059D02*
X120724740Y-111626725D01*
X120724740Y-111836249D02*
X120777121Y-111731487D01*
X120829502Y-111679106D01*
X120934264Y-111626725D01*
X121039026Y-111626725D01*
X121405693Y-112360059D02*
X121405693Y-111626725D01*
X121405693Y-111836249D02*
X121458074Y-111731487D01*
X121510455Y-111679106D01*
X121615217Y-111626725D01*
X121719979Y-111626725D01*
X122505693Y-112307678D02*
X122400931Y-112360059D01*
X122191407Y-112360059D01*
X122086645Y-112307678D01*
X122034264Y-112202916D01*
X122034264Y-111783868D01*
X122086645Y-111679106D01*
X122191407Y-111626725D01*
X122400931Y-111626725D01*
X122505693Y-111679106D01*
X122558074Y-111783868D01*
X122558074Y-111888630D01*
X122034264Y-111993392D01*
X122872360Y-111626725D02*
X123291407Y-111626725D01*
X123029502Y-111260059D02*
X123029502Y-112202916D01*
X123081883Y-112307678D01*
X123186645Y-112360059D01*
X123291407Y-112360059D01*
X123500931Y-111626725D02*
X123919979Y-111626725D01*
X123658074Y-111260059D02*
X123658074Y-112202916D01*
X123710455Y-112307678D01*
X123815217Y-112360059D01*
X123919979Y-112360059D01*
D10*
%TO.C,U3*%
X107792200Y-97358200D02*
X107792200Y-95408200D01*
X107792200Y-97358200D02*
X107792200Y-99308200D01*
X102672200Y-97358200D02*
X102672200Y-95408200D01*
X102672200Y-97358200D02*
X102672200Y-100808200D01*
D12*
X103915043Y-98058200D02*
G75*
G03*
X103915043Y-98058200I-282843J0D01*
G01*
D10*
%TO.C,J4*%
X112353540Y-90540020D02*
X113413540Y-90540020D01*
X112353540Y-91600020D02*
X112353540Y-90540020D01*
X112353540Y-92600020D02*
X114473540Y-92600020D01*
X114473540Y-92600020D02*
X114473540Y-92660020D01*
X112353540Y-92600020D02*
X112353540Y-92660020D01*
X112353540Y-92660020D02*
X114473540Y-92660020D01*
%TO.C,J3*%
X116498820Y-108553700D02*
X117558820Y-108553700D01*
X116498820Y-109613700D02*
X116498820Y-108553700D01*
X116498820Y-110613700D02*
X118618820Y-110613700D01*
X118618820Y-110613700D02*
X118618820Y-110673700D01*
X116498820Y-110613700D02*
X116498820Y-110673700D01*
X116498820Y-110673700D02*
X118618820Y-110673700D01*
%TO.C,J1*%
X124012140Y-90489220D02*
X125072140Y-90489220D01*
X124012140Y-91549220D02*
X124012140Y-90489220D01*
X124012140Y-92549220D02*
X126132140Y-92549220D01*
X126132140Y-92549220D02*
X126132140Y-92609220D01*
X124012140Y-92549220D02*
X124012140Y-92609220D01*
X124012140Y-92609220D02*
X126132140Y-92609220D01*
%TO.C,D1*%
X126431160Y-104228360D02*
X125501160Y-104228360D01*
X123271160Y-104228360D02*
X124201160Y-104228360D01*
X123271160Y-104228360D02*
X123271160Y-106388360D01*
X126431160Y-104228360D02*
X126431160Y-105688360D01*
%TO.C,U1*%
X119307180Y-99586140D02*
X116857180Y-99586140D01*
X117507180Y-102806140D02*
X119307180Y-102806140D01*
%TO.C,R7*%
X105730600Y-108398200D02*
X104530600Y-108398200D01*
X104530600Y-106638200D02*
X105730600Y-106638200D01*
%TO.C,R6*%
X105730600Y-105985200D02*
X104530600Y-105985200D01*
X104530600Y-104225200D02*
X105730600Y-104225200D01*
%TO.C,R5*%
X111953600Y-101337000D02*
X110753600Y-101337000D01*
X110753600Y-99577000D02*
X111953600Y-99577000D01*
%TO.C,R4*%
X112055200Y-95114000D02*
X110855200Y-95114000D01*
X110855200Y-93354000D02*
X112055200Y-93354000D01*
%TO.C,R3*%
X125458780Y-103076900D02*
X124258780Y-103076900D01*
X124258780Y-101316900D02*
X125458780Y-101316900D01*
%TO.C,R2*%
X123851160Y-94771820D02*
X125851160Y-94771820D01*
X125851160Y-96911820D02*
X123851160Y-96911820D01*
%TO.C,R1*%
X125851160Y-99655020D02*
X123851160Y-99655020D01*
X123851160Y-97515020D02*
X125851160Y-97515020D01*
%TO.C,J5*%
X98670000Y-92320000D02*
X100000000Y-92320000D01*
X98670000Y-93650000D02*
X98670000Y-92320000D01*
X98670000Y-94920000D02*
X101330000Y-94920000D01*
X101330000Y-94920000D02*
X101330000Y-107680000D01*
X98670000Y-94920000D02*
X98670000Y-107680000D01*
X98670000Y-107680000D02*
X101330000Y-107680000D01*
D12*
%TO.C,J2*%
X132800000Y-92269800D02*
X132800000Y-107389800D01*
X142100000Y-92269800D02*
X132800000Y-92269800D01*
X142100000Y-107389800D02*
X142100000Y-92269800D01*
X132800000Y-107389800D02*
X142100000Y-107389800D01*
X139800000Y-106829800D02*
X139800000Y-92829800D01*
D10*
%TO.C,U2*%
X110529800Y-98815800D02*
X112979800Y-98815800D01*
X112329800Y-95595800D02*
X110529800Y-95595800D01*
%TO.C,C5*%
X104706800Y-103364400D02*
X105706800Y-103364400D01*
X105706800Y-101664400D02*
X104706800Y-101664400D01*
%TO.C,C4*%
X104757600Y-93255200D02*
X105757600Y-93255200D01*
X105757600Y-91555200D02*
X104757600Y-91555200D01*
%TO.C,C3*%
X111853600Y-102020000D02*
X110853600Y-102020000D01*
X110853600Y-103720000D02*
X111853600Y-103720000D01*
%TO.C,C2*%
X117907180Y-98947340D02*
X118907180Y-98947340D01*
X118907180Y-97247340D02*
X117907180Y-97247340D01*
%TO.C,C1*%
X118110380Y-105393860D02*
X119110380Y-105393860D01*
X119110380Y-103693860D02*
X118110380Y-103693860D01*
%TD*%
%TO.C,U3*%
D12*
X101534980Y-94828264D02*
X102344504Y-94828264D01*
X102439742Y-94780645D01*
X102487361Y-94733026D01*
X102534980Y-94637788D01*
X102534980Y-94447312D01*
X102487361Y-94352074D01*
X102439742Y-94304455D01*
X102344504Y-94256836D01*
X101534980Y-94256836D01*
X101534980Y-93875883D02*
X101534980Y-93256836D01*
X101915933Y-93590169D01*
X101915933Y-93447312D01*
X101963552Y-93352074D01*
X102011171Y-93304455D01*
X102106409Y-93256836D01*
X102344504Y-93256836D01*
X102439742Y-93304455D01*
X102487361Y-93352074D01*
X102534980Y-93447312D01*
X102534980Y-93733026D01*
X102487361Y-93828264D01*
X102439742Y-93875883D01*
%TO.C,J4*%
X113080206Y-88992400D02*
X113080206Y-89706686D01*
X113032587Y-89849543D01*
X112937349Y-89944781D01*
X112794492Y-89992400D01*
X112699254Y-89992400D01*
X113984968Y-89325734D02*
X113984968Y-89992400D01*
X113746873Y-88944781D02*
X113508778Y-89659067D01*
X114127825Y-89659067D01*
%TO.C,J3*%
X117225486Y-107006080D02*
X117225486Y-107720366D01*
X117177867Y-107863223D01*
X117082629Y-107958461D01*
X116939772Y-108006080D01*
X116844534Y-108006080D01*
X117606439Y-107006080D02*
X118225486Y-107006080D01*
X117892153Y-107387033D01*
X118035010Y-107387033D01*
X118130248Y-107434652D01*
X118177867Y-107482271D01*
X118225486Y-107577509D01*
X118225486Y-107815604D01*
X118177867Y-107910842D01*
X118130248Y-107958461D01*
X118035010Y-108006080D01*
X117749296Y-108006080D01*
X117654058Y-107958461D01*
X117606439Y-107910842D01*
%TO.C,D1*%
X123401864Y-108034080D02*
X123401864Y-107034080D01*
X123639960Y-107034080D01*
X123782817Y-107081700D01*
X123878055Y-107176938D01*
X123925674Y-107272176D01*
X123973293Y-107462652D01*
X123973293Y-107605509D01*
X123925674Y-107795985D01*
X123878055Y-107891223D01*
X123782817Y-107986461D01*
X123639960Y-108034080D01*
X123401864Y-108034080D01*
X124925674Y-108034080D02*
X124354245Y-108034080D01*
X124639960Y-108034080D02*
X124639960Y-107034080D01*
X124544721Y-107176938D01*
X124449483Y-107272176D01*
X124354245Y-107319795D01*
%TO.C,U1*%
X120693275Y-100765360D02*
X120693275Y-101574884D01*
X120740894Y-101670122D01*
X120788513Y-101717741D01*
X120883751Y-101765360D01*
X121074227Y-101765360D01*
X121169465Y-101717741D01*
X121217084Y-101670122D01*
X121264703Y-101574884D01*
X121264703Y-100765360D01*
X122264703Y-101765360D02*
X121693275Y-101765360D01*
X121978989Y-101765360D02*
X121978989Y-100765360D01*
X121883751Y-100908218D01*
X121788513Y-101003456D01*
X121693275Y-101051075D01*
%TO.C,R7*%
X102266453Y-108244900D02*
X101933120Y-107768710D01*
X101695024Y-108244900D02*
X101695024Y-107244900D01*
X102075977Y-107244900D01*
X102171215Y-107292520D01*
X102218834Y-107340139D01*
X102266453Y-107435377D01*
X102266453Y-107578234D01*
X102218834Y-107673472D01*
X102171215Y-107721091D01*
X102075977Y-107768710D01*
X101695024Y-107768710D01*
X102599786Y-107244900D02*
X103266453Y-107244900D01*
X102837881Y-108244900D01*
%TO.C,R6*%
X102266453Y-105831900D02*
X101933120Y-105355710D01*
X101695024Y-105831900D02*
X101695024Y-104831900D01*
X102075977Y-104831900D01*
X102171215Y-104879520D01*
X102218834Y-104927139D01*
X102266453Y-105022377D01*
X102266453Y-105165234D01*
X102218834Y-105260472D01*
X102171215Y-105308091D01*
X102075977Y-105355710D01*
X101695024Y-105355710D01*
X103123596Y-104831900D02*
X102933120Y-104831900D01*
X102837881Y-104879520D01*
X102790262Y-104927139D01*
X102695024Y-105069996D01*
X102647405Y-105260472D01*
X102647405Y-105641424D01*
X102695024Y-105736662D01*
X102742643Y-105784281D01*
X102837881Y-105831900D01*
X103028358Y-105831900D01*
X103123596Y-105784281D01*
X103171215Y-105736662D01*
X103218834Y-105641424D01*
X103218834Y-105403329D01*
X103171215Y-105308091D01*
X103123596Y-105260472D01*
X103028358Y-105212853D01*
X102837881Y-105212853D01*
X102742643Y-105260472D01*
X102695024Y-105308091D01*
X102647405Y-105403329D01*
%TO.C,R5*%
X113993633Y-100779840D02*
X113660300Y-100303650D01*
X113422204Y-100779840D02*
X113422204Y-99779840D01*
X113803157Y-99779840D01*
X113898395Y-99827460D01*
X113946014Y-99875079D01*
X113993633Y-99970317D01*
X113993633Y-100113174D01*
X113946014Y-100208412D01*
X113898395Y-100256031D01*
X113803157Y-100303650D01*
X113422204Y-100303650D01*
X114898395Y-99779840D02*
X114422204Y-99779840D01*
X114374585Y-100256031D01*
X114422204Y-100208412D01*
X114517442Y-100160793D01*
X114755538Y-100160793D01*
X114850776Y-100208412D01*
X114898395Y-100256031D01*
X114946014Y-100351269D01*
X114946014Y-100589364D01*
X114898395Y-100684602D01*
X114850776Y-100732221D01*
X114755538Y-100779840D01*
X114517442Y-100779840D01*
X114422204Y-100732221D01*
X114374585Y-100684602D01*
%TO.C,R4*%
X114034273Y-94729560D02*
X113700940Y-94253370D01*
X113462844Y-94729560D02*
X113462844Y-93729560D01*
X113843797Y-93729560D01*
X113939035Y-93777180D01*
X113986654Y-93824799D01*
X114034273Y-93920037D01*
X114034273Y-94062894D01*
X113986654Y-94158132D01*
X113939035Y-94205751D01*
X113843797Y-94253370D01*
X113462844Y-94253370D01*
X114891416Y-94062894D02*
X114891416Y-94729560D01*
X114653320Y-93681941D02*
X114415225Y-94396227D01*
X115034273Y-94396227D01*
%TO.C,R3*%
X127083333Y-103702380D02*
X126750000Y-103226190D01*
X126511904Y-103702380D02*
X126511904Y-102702380D01*
X126892857Y-102702380D01*
X126988095Y-102750000D01*
X127035714Y-102797619D01*
X127083333Y-102892857D01*
X127083333Y-103035714D01*
X127035714Y-103130952D01*
X126988095Y-103178571D01*
X126892857Y-103226190D01*
X126511904Y-103226190D01*
X127416666Y-102702380D02*
X128035714Y-102702380D01*
X127702380Y-103083333D01*
X127845238Y-103083333D01*
X127940476Y-103130952D01*
X127988095Y-103178571D01*
X128035714Y-103273809D01*
X128035714Y-103511904D01*
X127988095Y-103607142D01*
X127940476Y-103654761D01*
X127845238Y-103702380D01*
X127559523Y-103702380D01*
X127464285Y-103654761D01*
X127416666Y-103607142D01*
%TO.C,R2*%
X124717513Y-94440000D02*
X124384180Y-93963810D01*
X124146084Y-94440000D02*
X124146084Y-93440000D01*
X124527037Y-93440000D01*
X124622275Y-93487620D01*
X124669894Y-93535239D01*
X124717513Y-93630477D01*
X124717513Y-93773334D01*
X124669894Y-93868572D01*
X124622275Y-93916191D01*
X124527037Y-93963810D01*
X124146084Y-93963810D01*
X125098465Y-93535239D02*
X125146084Y-93487620D01*
X125241322Y-93440000D01*
X125479418Y-93440000D01*
X125574656Y-93487620D01*
X125622275Y-93535239D01*
X125669894Y-93630477D01*
X125669894Y-93725715D01*
X125622275Y-93868572D01*
X125050846Y-94440000D01*
X125669894Y-94440000D01*
%TO.C,R1*%
X124844513Y-101000820D02*
X124511180Y-100524630D01*
X124273084Y-101000820D02*
X124273084Y-100000820D01*
X124654037Y-100000820D01*
X124749275Y-100048440D01*
X124796894Y-100096059D01*
X124844513Y-100191297D01*
X124844513Y-100334154D01*
X124796894Y-100429392D01*
X124749275Y-100477011D01*
X124654037Y-100524630D01*
X124273084Y-100524630D01*
X125796894Y-101000820D02*
X125225465Y-101000820D01*
X125511180Y-101000820D02*
X125511180Y-100000820D01*
X125415941Y-100143678D01*
X125320703Y-100238916D01*
X125225465Y-100286535D01*
%TO.C,J5*%
X99666666Y-90772380D02*
X99666666Y-91486666D01*
X99619047Y-91629523D01*
X99523809Y-91724761D01*
X99380952Y-91772380D01*
X99285714Y-91772380D01*
X100619047Y-90772380D02*
X100142857Y-90772380D01*
X100095238Y-91248571D01*
X100142857Y-91200952D01*
X100238095Y-91153333D01*
X100476190Y-91153333D01*
X100571428Y-91200952D01*
X100619047Y-91248571D01*
X100666666Y-91343809D01*
X100666666Y-91581904D01*
X100619047Y-91677142D01*
X100571428Y-91724761D01*
X100476190Y-91772380D01*
X100238095Y-91772380D01*
X100142857Y-91724761D01*
X100095238Y-91677142D01*
%TO.C,J2*%
X136952380Y-100163133D02*
X137666666Y-100163133D01*
X137809523Y-100210752D01*
X137904761Y-100305990D01*
X137952380Y-100448847D01*
X137952380Y-100544085D01*
X137047619Y-99734561D02*
X137000000Y-99686942D01*
X136952380Y-99591704D01*
X136952380Y-99353609D01*
X137000000Y-99258371D01*
X137047619Y-99210752D01*
X137142857Y-99163133D01*
X137238095Y-99163133D01*
X137380952Y-99210752D01*
X137952380Y-99782180D01*
X137952380Y-99163133D01*
%TO.C,U2*%
X108452380Y-98011904D02*
X109261904Y-98011904D01*
X109357142Y-97964285D01*
X109404761Y-97916666D01*
X109452380Y-97821428D01*
X109452380Y-97630952D01*
X109404761Y-97535714D01*
X109357142Y-97488095D01*
X109261904Y-97440476D01*
X108452380Y-97440476D01*
X108547619Y-97011904D02*
X108500000Y-96964285D01*
X108452380Y-96869047D01*
X108452380Y-96630952D01*
X108500000Y-96535714D01*
X108547619Y-96488095D01*
X108642857Y-96440476D01*
X108738095Y-96440476D01*
X108880952Y-96488095D01*
X109452380Y-97059523D01*
X109452380Y-96440476D01*
%TO.C,C5*%
X102373133Y-103079822D02*
X102325514Y-103127441D01*
X102182657Y-103175060D01*
X102087419Y-103175060D01*
X101944561Y-103127441D01*
X101849323Y-103032203D01*
X101801704Y-102936965D01*
X101754085Y-102746489D01*
X101754085Y-102603632D01*
X101801704Y-102413156D01*
X101849323Y-102317918D01*
X101944561Y-102222680D01*
X102087419Y-102175060D01*
X102182657Y-102175060D01*
X102325514Y-102222680D01*
X102373133Y-102270299D01*
X103277895Y-102175060D02*
X102801704Y-102175060D01*
X102754085Y-102651251D01*
X102801704Y-102603632D01*
X102896942Y-102556013D01*
X103135038Y-102556013D01*
X103230276Y-102603632D01*
X103277895Y-102651251D01*
X103325514Y-102746489D01*
X103325514Y-102984584D01*
X103277895Y-103079822D01*
X103230276Y-103127441D01*
X103135038Y-103175060D01*
X102896942Y-103175060D01*
X102801704Y-103127441D01*
X102754085Y-103079822D01*
%TO.C,C4*%
X105090933Y-91262342D02*
X105043314Y-91309961D01*
X104900457Y-91357580D01*
X104805219Y-91357580D01*
X104662361Y-91309961D01*
X104567123Y-91214723D01*
X104519504Y-91119485D01*
X104471885Y-90929009D01*
X104471885Y-90786152D01*
X104519504Y-90595676D01*
X104567123Y-90500438D01*
X104662361Y-90405200D01*
X104805219Y-90357580D01*
X104900457Y-90357580D01*
X105043314Y-90405200D01*
X105090933Y-90452819D01*
X105948076Y-90690914D02*
X105948076Y-91357580D01*
X105709980Y-90309961D02*
X105471885Y-91024247D01*
X106090933Y-91024247D01*
%TO.C,C3*%
X113952993Y-103178882D02*
X113905374Y-103226501D01*
X113762517Y-103274120D01*
X113667279Y-103274120D01*
X113524421Y-103226501D01*
X113429183Y-103131263D01*
X113381564Y-103036025D01*
X113333945Y-102845549D01*
X113333945Y-102702692D01*
X113381564Y-102512216D01*
X113429183Y-102416978D01*
X113524421Y-102321740D01*
X113667279Y-102274120D01*
X113762517Y-102274120D01*
X113905374Y-102321740D01*
X113952993Y-102369359D01*
X114286326Y-102274120D02*
X114905374Y-102274120D01*
X114572040Y-102655073D01*
X114714898Y-102655073D01*
X114810136Y-102702692D01*
X114857755Y-102750311D01*
X114905374Y-102845549D01*
X114905374Y-103083644D01*
X114857755Y-103178882D01*
X114810136Y-103226501D01*
X114714898Y-103274120D01*
X114429183Y-103274120D01*
X114333945Y-103226501D01*
X114286326Y-103178882D01*
%TO.C,C2*%
X121108173Y-98396062D02*
X121060554Y-98443681D01*
X120917697Y-98491300D01*
X120822459Y-98491300D01*
X120679601Y-98443681D01*
X120584363Y-98348443D01*
X120536744Y-98253205D01*
X120489125Y-98062729D01*
X120489125Y-97919872D01*
X120536744Y-97729396D01*
X120584363Y-97634158D01*
X120679601Y-97538920D01*
X120822459Y-97491300D01*
X120917697Y-97491300D01*
X121060554Y-97538920D01*
X121108173Y-97586539D01*
X121489125Y-97586539D02*
X121536744Y-97538920D01*
X121631982Y-97491300D01*
X121870078Y-97491300D01*
X121965316Y-97538920D01*
X122012935Y-97586539D01*
X122060554Y-97681777D01*
X122060554Y-97777015D01*
X122012935Y-97919872D01*
X121441506Y-98491300D01*
X122060554Y-98491300D01*
%TO.C,C1*%
X121456153Y-104974662D02*
X121408534Y-105022281D01*
X121265677Y-105069900D01*
X121170439Y-105069900D01*
X121027581Y-105022281D01*
X120932343Y-104927043D01*
X120884724Y-104831805D01*
X120837105Y-104641329D01*
X120837105Y-104498472D01*
X120884724Y-104307996D01*
X120932343Y-104212758D01*
X121027581Y-104117520D01*
X121170439Y-104069900D01*
X121265677Y-104069900D01*
X121408534Y-104117520D01*
X121456153Y-104165139D01*
X122408534Y-105069900D02*
X121837105Y-105069900D01*
X122122820Y-105069900D02*
X122122820Y-104069900D01*
X122027581Y-104212758D01*
X121932343Y-104307996D01*
X121837105Y-104355615D01*
%TD*%
M02*
