M48
; DRILL file {KiCad (5.1.6)-1} date 11/03/20 17:55:59
; FORMAT={-:-/ absolute / inch / decimal}
; #@! TF.CreationDate,2020-11-03T17:55:59-08:00
; #@! TF.GenerationSoftware,Kicad,Pcbnew,(5.1.6)-1
; #@! TF.FileFunction,Plated,1,2,PTH
FMAT,2
INCH
T1C0.0157
T2C0.0315
T3C0.0394
T4C0.0551
%
G90
G05
T1
X4.037Y-3.997
X4.107Y-3.573
X4.2378Y-3.9992
X4.24Y-3.637
X4.342Y-4.117
X4.4928Y-3.8134
X4.559Y-3.8947
X4.5689Y-3.9841
X4.5709Y-3.811
X4.7006Y-3.8003
X4.7091Y-4.1677
X4.823Y-4.1746
X4.95Y-4.2464
X5.0357Y-3.7078
T2
X4.4651Y-3.6063
X4.9241Y-3.6043
X4.6283Y-4.3155
T3
X3.937Y-3.687
X3.937Y-3.787
X3.937Y-3.887
X3.937Y-3.987
X3.937Y-4.087
X3.937Y-4.187
T4
X5.2756Y-3.7236
X5.2756Y-3.8614
X5.2756Y-3.9992
X5.2756Y-4.137
T0
M30
